<?xml version="1.0" encoding="UTF-8"?>
<svg width="90px" height="90px" viewBox="0 0 90 90" version="1.1" xmlns="http://www.w3.org/2000/svg" xmlns:xlink="http://www.w3.org/1999/xlink">
    <!-- Generator: Sketch 43.1 (39012) - http://www.bohemiancoding.com/sketch -->
    <title>XMLID_141_</title>
    <desc>Created with Sketch.</desc>
    <defs></defs>
    <g id="Page-1" stroke="none" stroke-width="1" fill="none" fill-rule="evenodd">
        <g id="Untitled-2-01-01" transform="translate(-1550.000000, -957.000000)" fill-rule="nonzero">
            <g id="XMLID_411_" transform="translate(1550.000000, 957.000000)">
                <g id="Group">
                    <g id="XMLID_141_">
                        <path d="M37.46,74.2 L49.74,74.2 L49.74,45.67 L57.06,45.67 L59.22,35.38 L49.74,35.38 L49.74,29.52 C49.74,27.09 50.23,26.13 52.58,26.13 L59.22,26.13 L59.22,15.45 L50.72,15.45 C41.58,15.45 37.47,19.47 37.47,27.18 L37.47,35.39 L31.08,35.39 L31.08,45.81 L37.47,45.81 L37.47,74.2 L37.46,74.2 Z" id="XMLID_146_" fill="#FFFFFF"></path>
                        <g id="XMLID_142_" fill="#8107BC">
                            <path d="M45.14,89.07 C20.74,89.07 0.89,69.22 0.89,44.82 C0.89,20.42 20.74,0.57 45.14,0.57 C69.54,0.57 89.39,20.42 89.39,44.82 C89.39,69.22 69.53,89.07 45.14,89.07 Z M45.14,5.68 C23.56,5.68 6,23.24 6,44.82 C6,66.41 23.55,83.96 45.14,83.96 C66.72,83.96 84.28,66.4 84.28,44.82 C84.28,23.24 66.72,5.68 45.14,5.68 Z" id="XMLID_143_"></path>
                        </g>
                    </g>
                </g>
            </g>
        </g>
    </g>
</svg>