<?xml version="1.0" encoding="UTF-8"?>
<svg width="285px" height="285px" viewBox="0 0 285 285" version="1.1" xmlns="http://www.w3.org/2000/svg" xmlns:xlink="http://www.w3.org/1999/xlink">
    <!-- Generator: Sketch 43.1 (39012) - http://www.bohemiancoding.com/sketch -->
    <title>Group 5</title>
    <desc>Created with Sketch.</desc>
    <defs>
        <radialGradient cx="64.0921553%" cy="23.8477234%" fx="64.0921553%" fy="23.8477234%" r="135.963878%" id="radialGradient-1">
            <stop stop-color="#E6007E" offset="0%"></stop>
            <stop stop-color="#F29AC2" offset="100%"></stop>
        </radialGradient>
    </defs>
    <g id="Page-1" stroke="none" stroke-width="1" fill="none" fill-rule="evenodd">
        <g id="Untitled-2-01-01" transform="translate(-382.000000, -1651.000000)" fill-rule="nonzero">
            <g id="Group" transform="translate(382.000000, 1651.000000)">
                <g id="Group-5">
                    <circle id="Oval" fill="url(#radialGradient-1)" cx="142.38" cy="142.85" r="141.88"></circle>
                    <g id="XMLID_2_" transform="translate(70.000000, 32.000000)" fill="#FFFFFF">
                        <path d="M129,63.12 C129,63.15 129.03,64.24 128.86,66.1 C128.61,69.39 127.93,72.68 126.83,75.84 C124.16,84.45 118.7,95.23 107.65,106.14 L106.7,105.24 C112.84,98.94 117.25,90.95 119.19,82.03 C120.46,79.32 121.44,76.75 122.18,74.36 C123.18,71.51 123.78,68.62 123.99,65.69 C124.14,64.1 124.12,63.22 124.12,63.21 C124.11,47.32 113.34,34.24 99.47,32.32 C96.78,30.47 93.89,28.89 90.85,27.62 C92.52,27.34 94.22,27.19 95.94,27.19 C114.17,27.19 129,43.31 129,63.12 Z" id="Shape"></path>
                        <path d="M72.38,0.74 C112.07,0.74 144.24,32.92 144.24,72.6 C144.24,133.02 72.38,203 72.38,203 C72.38,203 0.52,133.02 0.52,72.6 C0.52,32.92 32.7,0.74 72.38,0.74 Z M128.86,66.1 C129.03,64.24 129,63.15 129,63.12 C129,43.31 114.17,27.19 95.94,27.19 C94.22,27.19 92.52,27.34 90.85,27.62 C85.16,25.24 78.93,23.93 72.38,23.93 C65.84,23.93 59.61,25.24 53.93,27.61 C52.27,27.33 50.58,27.19 48.87,27.19 C30.65,27.19 15.82,43.31 15.82,63.01 C15.82,63.02 15.77,64.1 15.95,66.04 C16.2,69.42 16.9,72.74 17.98,75.84 C20.65,84.45 26.11,95.23 37.16,106.13 C45.22,114.09 56.25,122.11 71.34,129.42 C71.68,129.58 72.04,129.66 72.41,129.66 C72.77,129.66 73.14,129.58 73.47,129.42 C88.56,122.11 99.59,114.09 107.65,106.14 C118.7,95.23 124.16,84.45 126.83,75.84 C127.93,72.68 128.61,69.39 128.86,66.1 Z" id="Shape"></path>
                        <path d="M83.61,118.4 C103.7,106.3 113.98,93.07 119.19,82.03 C117.25,90.95 112.84,98.94 106.7,105.24 C100.5,111.61 92.54,116.25 83.61,118.4 Z" id="Shape"></path>
                        <path d="M106.7,105.24 L107.65,106.14 C99.59,114.09 88.56,122.11 73.47,129.42 C73.14,129.58 72.77,129.66 72.41,129.66 C72.04,129.66 71.68,129.58 71.34,129.42 C56.25,122.11 45.22,114.09 37.16,106.13 L38.08,105.26 C44.3,111.64 52.28,116.28 61.24,118.42 C64.67,120.49 68.38,122.52 72.41,124.51 C76.45,122.52 80.17,120.47 83.61,118.4 C92.54,116.25 100.5,111.61 106.7,105.24 Z" id="Shape"></path>
                        <path d="M99.47,32.32 C98.31,32.16 97.14,32.07 95.94,32.07 C87.6,32.07 79.73,36.13 74.35,43.2 C73.43,44.41 71.39,44.41 70.46,43.2 C65.09,36.13 57.22,32.07 48.87,32.07 C47.65,32.07 46.46,32.17 45.28,32.33 C47.98,30.48 50.88,28.89 53.93,27.61 C60.94,28.79 67.4,32.37 72.41,37.9 C77.4,32.38 83.86,28.8 90.85,27.62 C93.89,28.89 96.78,30.47 99.47,32.32 Z" id="Shape"></path>
                        <path d="M72.38,23.93 C78.93,23.93 85.16,25.24 90.85,27.62 C83.86,28.8 77.4,32.38 72.41,37.9 C67.4,32.37 60.94,28.79 53.93,27.61 C59.61,25.24 65.84,23.93 72.38,23.93 Z" id="Shape"></path>
                        <path d="M48.87,27.19 C50.58,27.19 52.27,27.33 53.93,27.61 C50.88,28.89 47.98,30.48 45.28,32.33 C31.44,34.28 20.7,47.34 20.7,63.12 C20.7,63.24 20.67,64.1 20.81,65.63 C21.04,68.63 21.64,71.53 22.62,74.31 C23.34,76.64 24.29,79.15 25.51,81.77 C27.42,90.81 31.88,98.89 38.08,105.26 L37.16,106.13 C26.11,95.23 20.65,84.45 17.98,75.84 C16.9,72.74 16.2,69.42 15.95,66.04 C15.77,64.1 15.82,63.02 15.82,63.01 C15.82,43.31 30.65,27.19 48.87,27.19 Z" id="Shape"></path>
                        <path d="M61.24,118.42 C52.28,116.28 44.3,111.64 38.08,105.26 C31.88,98.89 27.42,90.81 25.51,81.77 C30.71,92.9 41,106.23 61.24,118.42 Z" id="Shape"></path>
                    </g>
                </g>
            </g>
        </g>
    </g>
</svg>