<?xml version="1.0" encoding="UTF-8"?>
<svg width="89px" height="90px" viewBox="0 0 89 90" version="1.1" xmlns="http://www.w3.org/2000/svg" xmlns:xlink="http://www.w3.org/1999/xlink">
    <!-- Generator: Sketch 43.1 (39012) - http://www.bohemiancoding.com/sketch -->
    <title>Group</title>
    <desc>Created with Sketch.</desc>
    <defs></defs>
    <g id="Page-1" stroke="none" stroke-width="1" fill="none" fill-rule="evenodd">
        <g id="Untitled-2-01-01" transform="translate(-1680.000000, -960.000000)" fill-rule="nonzero">
            <g id="XMLID_411_" transform="translate(1550.000000, 957.000000)">
                <g id="Group">
                    <g transform="translate(130.000000, 3.000000)">
                        <g id="XMLID_136_" fill="#8107BC">
                            <g id="XMLID_137_">
                                <path d="M44.75,89.21 C20.35,89.21 0.5,69.36 0.5,44.97 C0.5,20.57 20.35,0.73 44.75,0.73 C69.14,0.73 89,20.58 89,44.97 C89,69.36 69.15,89.21 44.75,89.21 Z M44.75,5.82 C23.17,5.82 5.61,23.38 5.61,44.96 C5.61,66.55 23.17,84.1 44.75,84.1 C66.33,84.1 83.89,66.54 83.89,44.96 C83.89,23.38 66.33,5.82 44.75,5.82 Z" id="XMLID_138_"></path>
                            </g>
                        </g>
                        <g id="XMLID_128_" transform="translate(18.000000, 18.000000)" fill="#FFFFFF">
                            <path d="M36.93,53.2 L16.58,53.2 C7.72,53.2 0.51,45.99 0.51,37.13 L0.51,16.78 C0.51,7.92 7.72,0.71 16.58,0.71 L36.93,0.71 C45.79,0.71 53,7.92 53,16.78 L53,37.13 C53,45.99 45.79,53.2 36.93,53.2 Z M16.58,4.65 C9.89,4.65 4.44,10.1 4.44,16.79 L4.44,37.14 C4.44,43.83 9.89,49.28 16.58,49.28 L36.93,49.28 C43.62,49.28 49.07,43.83 49.07,37.14 L49.07,16.79 C49.07,10.1 43.62,4.65 36.93,4.65 L16.58,4.65 Z" id="XMLID_133_"></path>
                            <path d="M26.75,40.24 C19.43,40.24 13.47,34.28 13.47,26.96 C13.47,19.64 19.43,13.68 26.75,13.68 C34.07,13.68 40.03,19.64 40.03,26.96 C40.03,34.28 34.07,40.24 26.75,40.24 Z M26.75,17.71 C21.65,17.71 17.5,21.86 17.5,26.96 C17.5,32.06 21.65,36.21 26.75,36.21 C31.85,36.21 36,32.06 36,26.96 C36.01,21.86 31.86,17.71 26.75,17.71 Z" id="XMLID_130_"></path>
                            <path d="M44.93,12.24 C44.93,14.15 43.38,15.7 41.47,15.7 C39.56,15.7 38.01,14.15 38.01,12.24 C38.01,10.33 39.56,8.78 41.47,8.78 C43.38,8.79 44.93,10.33 44.93,12.24 Z" id="XMLID_129_"></path>
                        </g>
                    </g>
                </g>
            </g>
        </g>
    </g>
</svg>