<?xml version="1.0" encoding="UTF-8"?>
<svg width="284px" height="284px" viewBox="0 0 284 284" version="1.1" xmlns="http://www.w3.org/2000/svg" xmlns:xlink="http://www.w3.org/1999/xlink">
    <!-- Generator: Sketch 43.1 (39012) - http://www.bohemiancoding.com/sketch -->
    <title>Group 4</title>
    <desc>Created with Sketch.</desc>
    <defs>
        <radialGradient cx="64.09064%" cy="23.8479701%" fx="64.09064%" fy="23.8479701%" r="135.963878%" id="radialGradient-1">
            <stop stop-color="#E6007E" offset="0%"></stop>
            <stop stop-color="#F29AC2" offset="100%"></stop>
        </radialGradient>
    </defs>
    <g id="Page-1" stroke="none" stroke-width="1" fill="none" fill-rule="evenodd">
        <g id="Untitled-2-01-01" transform="translate(-852.000000, -1653.000000)" fill-rule="nonzero">
            <g id="Group" transform="translate(382.000000, 1651.000000)">
                <g id="Group-4" transform="translate(470.000000, 2.000000)">
                    <circle id="Oval" fill="url(#radialGradient-1)" cx="142.13" cy="142.03" r="141.88"></circle>
                    <g id="Group" transform="translate(37.000000, 34.000000)" fill="#FFFFFF">
                        <path d="M44.04,153.76 C36.37,153.76 29.67,148.93 24.82,139.77 C21.59,133.67 19.88,126.44 19.88,118.87 L19.88,118.15 C19.88,112.19 23.08,106.72 28.23,103.88 C31.88,101.86 37.68,99.46 44.57,99.46 C51.72,99.46 58.03,102.57 62.07,105.18 C66.7,108.18 69.47,113.3 69.47,118.87 C69.47,126.5 67.74,133.78 64.45,139.92 C59.49,149.19 52.69,153.96 44.57,153.75 C44.4,153.76 44.22,153.76 44.04,153.76 Z M44.58,106.36 C39.16,106.36 34.52,108.3 31.58,109.92 C28.62,111.55 26.79,114.7 26.79,118.15 L26.79,118.87 C26.79,125.32 28.22,131.43 30.93,136.54 C34.63,143.54 39.2,146.94 44.59,146.85 C50.11,146.98 54.69,143.58 58.38,136.67 C61.13,131.53 62.58,125.37 62.58,118.87 C62.58,115.65 60.99,112.69 58.33,110.97 C55.07,108.87 50.05,106.36 44.58,106.36 Z" id="Shape"></path>
                        <path d="M42.73,195.88 L3.51,195.88 C2.58,195.88 1.69,195.5 1.04,194.84 C0.39,194.17 0.04,193.27 0.06,192.34 C0.54,174.51 11.85,160.55 25.82,160.55 L52,160.55 C53.91,160.55 55.45,162.09 55.45,164 C55.45,165.91 53.91,167.45 52,167.45 L25.82,167.45 C16.67,167.45 8.82,176.83 7.24,188.98 L42.73,188.98 C44.64,188.98 46.18,190.53 46.18,192.43 C46.18,194.33 44.64,195.88 42.73,195.88 Z" id="Shape"></path>
                        <path d="M25.99,195.88 C24.08,195.88 22.54,194.33 22.54,192.43 L22.54,184.7 C22.54,182.79 24.08,181.25 25.99,181.25 C27.9,181.25 29.44,182.79 29.44,184.7 L29.44,192.43 C29.44,194.34 27.9,195.88 25.99,195.88 Z" id="Shape"></path>
                        <path d="M105.69,146.68 C105.47,146.68 105.25,146.68 105.03,146.67 C95.35,146.95 87.1,141.06 81.07,129.65 C77.1,122.14 75,113.25 75,103.92 L75,103.02 C75,95.89 78.83,89.34 85,85.93 C89.48,83.46 96.59,80.51 105.01,80.51 C113.74,80.51 121.47,84.33 126.42,87.53 C131.96,91.12 135.27,97.25 135.27,103.92 C135.27,113.32 133.13,122.28 129.1,129.83 C123.2,140.86 115.12,146.68 105.69,146.68 Z M105.03,139.77 C112.21,139.99 118.22,135.53 123,126.58 C126.51,120.02 128.36,112.18 128.36,103.92 C128.36,99.6 126.23,95.64 122.65,93.32 C118.49,90.62 112.04,87.41 104.99,87.41 C98.04,87.41 92.09,89.89 88.32,91.97 C84.35,94.16 81.89,98.4 81.89,103.02 L81.89,103.92 C81.89,112.12 83.71,119.9 87.16,126.42 C91.95,135.47 97.89,139.93 105.03,139.77 Z" id="Shape"></path>
                        <path d="M166.02,153.76 C165.84,153.76 165.65,153.76 165.47,153.75 C157.55,153.99 150.75,149.2 145.79,139.92 C142.51,133.77 140.77,126.49 140.77,118.87 C140.77,113.3 143.54,108.18 148.17,105.18 C152.2,102.57 158.51,99.46 165.67,99.46 C172.56,99.46 178.36,101.87 182.01,103.88 C187.16,106.72 190.36,112.19 190.36,118.15 L190.36,118.87 C190.36,126.44 188.65,133.67 185.42,139.77 C180.58,148.94 173.88,153.76 166.02,153.76 Z M165.47,146.85 C171.01,146.96 175.62,143.53 179.33,136.54 C182.03,131.43 183.46,125.32 183.46,118.87 L183.46,118.15 C183.46,114.71 181.63,111.55 178.67,109.92 C175.73,108.29 171.08,106.36 165.67,106.36 C160.2,106.36 155.18,108.87 151.92,110.98 C149.26,112.7 147.67,115.66 147.67,118.88 C147.67,125.38 149.12,131.53 151.87,136.68 C155.57,143.58 160.05,146.97 165.47,146.85 Z" id="Shape"></path>
                        <path d="M206.74,195.88 L167.52,195.88 C165.61,195.88 164.07,194.33 164.07,192.43 C164.07,190.53 165.61,188.98 167.52,188.98 L203.01,188.98 C201.43,176.83 193.58,167.45 184.43,167.45 L158.24,167.45 C156.33,167.45 154.79,165.91 154.79,164 C154.79,162.09 156.33,160.55 158.24,160.55 L184.43,160.55 C198.39,160.55 209.71,174.51 210.19,192.34 C210.21,193.27 209.86,194.17 209.21,194.84 C208.56,195.51 207.67,195.88 206.74,195.88 Z" id="Shape"></path>
                        <path d="M184.26,195.88 C182.35,195.88 180.81,194.33 180.81,192.43 L180.81,184.7 C180.81,182.79 182.35,181.25 184.26,181.25 C186.17,181.25 187.71,182.79 187.71,184.7 L187.71,192.43 C187.71,194.34 186.17,195.88 184.26,195.88 Z" id="Shape"></path>
                        <path d="M156.59,195.88 L53.66,195.88 C52.73,195.88 51.84,195.5 51.19,194.84 C50.54,194.17 50.19,193.27 50.21,192.34 C50.79,170.52 64.56,153.43 81.55,153.43 L128.71,153.43 C145.7,153.43 159.46,170.52 160.05,192.34 C160.07,193.27 159.72,194.17 159.07,194.84 C158.42,195.51 157.52,195.88 156.59,195.88 Z M57.35,188.98 L152.91,188.98 C151.18,172.89 140.83,160.34 128.71,160.34 L81.55,160.34 C69.43,160.33 59.08,172.89 57.35,188.98 Z" id="Shape"></path>
                        <path d="M81.76,195.88 C79.85,195.88 78.31,194.33 78.31,192.43 L78.31,182.77 C78.31,180.86 79.86,179.32 81.76,179.32 C83.67,179.32 85.21,180.86 85.21,182.77 L85.21,192.43 C85.21,194.34 83.67,195.88 81.76,195.88 Z" id="Shape"></path>
                        <path d="M128.49,195.88 C126.58,195.88 125.04,194.33 125.04,192.43 L125.04,182.77 C125.04,180.86 126.58,179.32 128.49,179.32 C130.4,179.32 131.94,180.86 131.94,182.77 L131.94,192.43 C131.94,194.34 130.4,195.88 128.49,195.88 Z" id="Shape"></path>
                        <path d="M181.93,111.39 C181.29,111.39 180.65,111.21 180.07,110.84 C178.47,109.81 178,107.68 179.03,106.07 C184.38,97.73 188.44,89.12 191.11,80.47 C192.82,75.56 193.87,70.55 194.25,65.46 C194.51,62.7 194.46,61.16 194.46,61.14 C194.46,31.27 172.48,7.07 145.46,7.07 C130.93,7.07 117.23,14.12 107.88,26.42 C106.57,28.14 103.69,28.14 102.38,26.42 C93.03,14.12 79.33,7.07 64.8,7.07 C37.78,7.07 15.8,31.27 15.8,61.01 C15.8,61.17 15.75,62.69 16,65.37 C16.39,70.56 17.44,75.6 19.13,80.41 C21.84,89.16 25.9,97.75 31.23,106.07 C32.26,107.67 31.79,109.81 30.19,110.84 C28.59,111.86 26.45,111.4 25.42,109.8 C19.74,100.95 15.42,91.79 12.57,82.57 C10.72,77.31 9.54,71.67 9.12,65.94 C8.82,62.77 8.89,60.95 8.9,60.87 C8.9,27.45 33.97,0.16 64.8,0.16 C80.13,0.16 94.61,6.93 105.13,18.88 C115.65,6.93 130.13,0.16 145.46,0.16 C176.28,0.16 201.36,27.45 201.36,61 C201.37,61.06 201.42,62.88 201.13,66.03 C200.71,71.65 199.54,77.26 197.67,82.62 C194.85,91.75 190.52,100.93 184.84,109.79 C184.18,110.83 183.06,111.39 181.93,111.39 Z" id="Shape"></path>
                        <path d="M33.48,54.28 C31.57,54.28 30.03,52.74 30.03,50.83 C30.03,33.41 43.12,19.23 59.2,19.23 C59.79,19.23 60.37,19.25 60.94,19.28 C62.84,19.4 64.29,21.04 64.16,22.95 C64.04,24.85 62.45,26.25 60.5,26.17 C60.07,26.14 59.64,26.13 59.2,26.13 C46.92,26.13 36.93,37.21 36.93,50.83 C36.93,52.73 35.39,54.28 33.48,54.28 Z" id="Shape"></path>
                    </g>
                </g>
            </g>
        </g>
    </g>
</svg>