<?xml version="1.0" encoding="UTF-8"?>
<svg width="284px" height="284px" viewBox="0 0 284 284" version="1.1" xmlns="http://www.w3.org/2000/svg" xmlns:xlink="http://www.w3.org/1999/xlink">
    <!-- Generator: Sketch 43.1 (39012) - http://www.bohemiancoding.com/sketch -->
    <title>Group 2</title>
    <desc>Created with Sketch.</desc>
    <defs>
        <radialGradient cx="64.0926487%" cy="23.8479701%" fx="64.0926487%" fy="23.8479701%" r="135.963878%" id="radialGradient-1">
            <stop stop-color="#E6007E" offset="0%"></stop>
            <stop stop-color="#F29AC2" offset="100%"></stop>
        </radialGradient>
    </defs>
    <g id="Page-1" stroke="none" stroke-width="1" fill="none" fill-rule="evenodd">
        <g id="Untitled-2-01-01" transform="translate(-1322.000000, -1653.000000)" fill-rule="nonzero">
            <g id="Group" transform="translate(382.000000, 1651.000000)">
                <g id="Group-2" transform="translate(939.000000, 2.000000)">
                    <circle id="Oval" fill="url(#radialGradient-1)" cx="142.87" cy="142.03" r="141.88"></circle>
                    <g id="Group" transform="translate(51.000000, 33.000000)" fill="#FFFFFF">
                        <path d="M41.7,51.62 C30.55,51.62 21.48,42.11 21.48,30.43 C21.48,18.75 30.55,9.24 41.7,9.24 C52.85,9.24 61.92,18.75 61.92,30.43 C61.93,42.11 52.85,51.62 41.7,51.62 Z M41.7,16.08 C34.32,16.08 28.32,22.52 28.32,30.43 C28.32,38.34 34.32,44.78 41.7,44.78 C49.08,44.78 55.08,38.34 55.08,30.43 C55.08,22.52 49.08,16.08 41.7,16.08 Z" id="Shape"></path>
                        <path d="M41.7,201 C39.81,201 38.28,199.47 38.28,197.58 L38.28,135.58 C38.28,133.69 39.81,132.16 41.7,132.16 C43.59,132.16 45.12,133.69 45.12,135.58 L45.12,197.58 C45.12,199.47 43.59,201 41.7,201 Z" id="Shape"></path>
                        <path d="M22.93,125.87 C21.04,125.87 19.51,124.34 19.51,122.45 L19.51,90.93 C19.51,89.04 21.04,87.51 22.93,87.51 C24.82,87.51 26.35,89.04 26.35,90.93 L26.35,122.45 C26.35,124.34 24.82,125.87 22.93,125.87 Z" id="Shape"></path>
                        <path d="M60.47,201 L22.93,201 C21.04,201 19.51,199.47 19.51,197.58 L19.51,133.72 C17.75,134.64 15.76,135.16 13.65,135.16 C6.64,135.16 0.94,129.46 0.94,122.45 L0.94,80.74 C0.94,68.61 10.81,58.75 22.93,58.75 L59.89,58.75 C62.14,57.93 71.95,54.09 83.7,45.58 C84.55,44.96 85.65,44.77 86.65,45.06 C87.66,45.35 88.48,46.09 88.88,47.07 C91.32,53.11 95.05,58.98 99.97,64.51 C100.6,65.22 100.91,66.16 100.82,67.11 C100.73,68.06 100.25,68.93 99.49,69.5 C88.9,77.59 76.93,82.95 63.89,85.47 L63.89,197.59 C63.9,199.47 62.36,201 60.47,201 Z M26.35,194.16 L57.05,194.16 L57.05,82.59 C57.05,80.91 58.27,79.47 59.94,79.21 C71.78,77.33 82.69,72.95 92.43,66.18 C89.14,62.11 86.41,57.87 84.28,53.52 C71.65,62.05 61.99,65.27 61.55,65.42 C61.2,65.53 60.85,65.59 60.48,65.59 L22.94,65.59 C14.59,65.59 7.79,72.39 7.79,80.74 L7.79,122.45 C7.79,125.68 10.42,128.31 13.65,128.31 C16.88,128.31 19.51,125.68 19.51,122.45 C19.51,120.56 21.04,119.03 22.93,119.03 C24.82,119.03 26.35,120.56 26.35,122.45 L26.35,194.16 Z" id="Shape"></path>
                        <path d="M154.75,88.97 C154.24,88.97 153.73,88.86 153.26,88.63 C138.77,81.62 133.46,72.79 131.55,66.62 C131.09,65.32 130.78,63.83 130.67,62.32 C130.6,61.54 130.61,61.03 130.61,60.96 C130.61,52.07 137.4,44.79 145.75,44.79 C149.04,44.79 152.18,45.92 154.76,47.97 C157.34,45.92 160.48,44.79 163.77,44.79 C172.11,44.79 178.9,52.06 178.91,61.01 C178.91,61.01 178.93,61.54 178.85,62.41 C178.74,63.83 178.44,65.28 177.96,66.67 C176.04,72.84 170.71,81.64 156.26,88.64 C155.77,88.85 155.26,88.97 154.75,88.97 Z M145.74,51.62 C141.17,51.62 137.45,55.84 137.45,61.02 C137.45,61.14 137.45,61.37 137.48,61.75 C137.55,62.73 137.74,63.62 138.04,64.47 C139.26,68.42 143,75.62 154.75,81.72 C166.5,75.61 170.24,68.42 171.42,64.58 C171.75,63.61 171.94,62.72 172.01,61.81 C172.05,61.41 172.05,61.2 172.05,61.12 C172.05,55.84 168.33,51.62 163.76,51.62 C161.35,51.62 159.06,52.81 157.48,54.9 C156.83,55.75 155.82,56.25 154.76,56.25 C153.69,56.25 152.68,55.75 152.04,54.9 C150.44,52.82 148.15,51.62 145.74,51.62 Z" id="Shape"></path>
                        <path d="M130.89,94.35 C130.38,94.35 129.87,94.24 129.4,94.01 C96.98,78.32 85.17,58.85 80.97,45.28 C79.97,42.45 79.33,39.37 79.1,36.23 C78.95,34.62 78.98,33.63 78.98,33.48 C78.98,15.11 92.81,0.12 109.82,0.12 C117.73,0.12 125.22,3.37 130.9,9.15 C136.58,3.37 144.08,0.12 151.98,0.12 C168.97,0.12 182.79,15.09 182.82,33.49 C182.83,33.79 182.84,34.79 182.69,36.32 C182.47,39.35 181.83,42.42 180.8,45.37 C179.8,48.64 178.34,52.09 176.52,55.5 C175.94,56.58 174.83,57.27 173.61,57.31 C172.37,57.36 171.23,56.73 170.59,55.68 C169.03,53.15 166.49,51.64 163.78,51.64 C161.37,51.64 159.08,52.83 157.5,54.92 C156.85,55.77 155.84,56.27 154.78,56.27 C153.71,56.27 152.7,55.77 152.06,54.92 C150.48,52.84 148.19,51.64 145.78,51.64 C141.21,51.64 137.49,55.86 137.49,61.04 C137.49,61.16 137.49,61.39 137.52,61.77 C137.59,62.75 137.78,63.64 138.08,64.49 C139.22,68.17 142.09,73.47 149.49,78.57 C150.42,79.21 150.97,80.27 150.97,81.39 C150.97,82.52 150.41,83.57 149.48,84.21 C144.3,87.75 138.55,91.06 132.42,94.03 C131.91,94.24 131.4,94.35 130.89,94.35 Z M109.81,6.95 C96.58,6.95 85.82,18.87 85.82,33.52 C85.82,33.73 85.8,34.45 85.92,35.65 C86.11,38.25 86.63,40.74 87.47,43.13 C91.24,55.32 101.81,72.64 130.89,87.12 C134.65,85.25 138.23,83.25 141.61,81.14 C135.45,75.84 132.74,70.46 131.55,66.62 C131.09,65.32 130.78,63.83 130.67,62.32 C130.6,61.54 130.61,61.03 130.61,60.96 C130.61,52.07 137.4,44.79 145.75,44.79 C149.04,44.79 152.18,45.92 154.76,47.97 C159.87,43.91 167.48,43.88 172.6,47.83 C173.26,46.28 173.82,44.75 174.29,43.23 C175.16,40.73 175.68,38.25 175.86,35.74 C175.98,34.47 175.97,33.76 175.97,33.65 C175.97,18.88 165.21,6.96 151.98,6.96 C144.89,6.96 138.2,10.41 133.62,16.44 C132.97,17.29 131.96,17.79 130.9,17.79 C129.83,17.79 128.82,17.29 128.18,16.44 C123.59,10.41 116.9,6.95 109.81,6.95 Z" id="Shape"></path>
                    </g>
                </g>
            </g>
        </g>
    </g>
</svg>