<?xml version="1.0" encoding="UTF-8"?>
<svg width="285px" height="285px" viewBox="0 0 285 285" version="1.1" xmlns="http://www.w3.org/2000/svg" xmlns:xlink="http://www.w3.org/1999/xlink">
    <!-- Generator: Sketch 43.1 (39012) - http://www.bohemiancoding.com/sketch -->
    <title>Group 3</title>
    <desc>Created with Sketch.</desc>
    <defs>
        <radialGradient cx="64.0911334%" cy="23.8477587%" fx="64.0911334%" fy="23.8477587%" r="135.963878%" id="radialGradient-1">
            <stop stop-color="#E6007E" offset="0%"></stop>
            <stop stop-color="#F29AC2" offset="100%"></stop>
        </radialGradient>
    </defs>
    <g id="Page-1" stroke="none" stroke-width="1" fill="none" fill-rule="evenodd">
        <g id="Untitled-2-01-01" transform="translate(-1791.000000, -1651.000000)" fill-rule="nonzero">
            <g id="Group" transform="translate(382.000000, 1651.000000)">
                <g id="Group-3" transform="translate(1409.000000, 0.000000)">
                    <circle id="Oval" fill="url(#radialGradient-1)" cx="142.62" cy="142.85" r="141.88"></circle>
                    <g id="Group" transform="translate(29.000000, 34.000000)" fill="#FFFFFF">
                        <path d="M144.11,44.37 C132.43,44.37 122.94,34.42 122.94,22.19 C122.94,9.96 132.44,0.01 144.11,0.01 C155.79,0.01 165.29,9.96 165.29,22.19 C165.28,34.42 155.78,44.37 144.11,44.37 Z M144.11,7.34 C136.48,7.34 130.27,14 130.27,22.18 C130.27,30.36 136.48,37.02 144.11,37.02 C151.74,37.02 157.95,30.36 157.95,22.18 C157.95,14 151.74,7.34 144.11,7.34 Z" id="Shape"></path>
                        <path d="M144.11,200 C142.08,200 140.44,198.36 140.44,196.33 L140.44,131.73 C140.44,129.7 142.08,128.06 144.11,128.06 C146.14,128.06 147.78,129.7 147.78,131.73 L147.78,196.33 C147.78,198.35 146.14,200 144.11,200 Z" id="Shape"></path>
                        <path d="M83.17,44.37 C71.49,44.37 61.99,34.42 61.99,22.19 C61.99,9.96 71.49,0.01 83.17,0.01 C94.85,0.01 104.34,9.96 104.34,22.19 C104.34,34.42 94.84,44.37 83.17,44.37 Z M83.17,7.34 C75.54,7.34 69.33,14 69.33,22.18 C69.33,30.36 75.54,37.02 83.17,37.02 C90.8,37.02 97.01,30.36 97.01,22.18 C97,14 90.8,7.34 83.17,7.34 Z" id="Shape"></path>
                        <path d="M83.17,200 C81.14,200 79.5,198.36 79.5,196.33 L79.5,131.73 C79.5,129.7 81.14,128.06 83.17,128.06 C85.2,128.06 86.84,129.7 86.84,131.73 L86.84,196.33 C86.84,198.35 85.2,200 83.17,200 Z" id="Shape"></path>
                        <path d="M163.67,200 L124.55,200 C122.52,200 120.88,198.36 120.88,196.33 L120.88,87.44 C120.88,83.45 117.63,80.2 113.64,80.2 C109.65,80.2 106.4,83.45 106.4,87.44 L106.4,196.33 C106.4,198.36 104.76,200 102.73,200 L63.61,200 C61.58,200 59.94,198.36 59.94,196.33 L59.94,79.61 C31.47,74.11 11.88,56.59 2.89,41.65 C0.85,38.25 0.37,34.15 1.59,30.38 C2.81,26.6 5.66,23.53 9.39,21.94 C14.43,19.8 20.37,21.07 24.52,25.2 C42.6,43.14 60.95,50.39 64.23,51.59 L163.03,51.59 C166.34,50.38 184.91,43.04 203.12,24.82 C205.85,22.08 209.65,20.69 213.57,20.94 C217.55,21.22 221.23,23.23 223.66,26.46 C226.96,30.83 227.18,37.04 224.22,41.9 C215.19,56.74 195.62,74.14 167.33,79.61 L167.33,196.33 C167.34,198.35 165.69,200 163.67,200 Z M128.22,192.66 L160,192.66 L160,76.53 C160,74.73 161.31,73.19 163.09,72.91 C190.57,68.55 209.45,52.06 217.96,38.09 C219.37,35.77 219.31,32.88 217.8,30.88 C216.63,29.33 214.95,28.4 213.06,28.27 C211.26,28.15 209.54,28.78 208.31,30.01 C187.02,51.31 165.7,58.45 164.8,58.74 C164.43,58.86 164.05,58.92 163.66,58.92 L63.6,58.92 C63.21,58.92 62.83,58.86 62.46,58.74 C61.57,58.45 40.51,51.4 19.35,30.4 C17.36,28.42 14.51,27.74 12.26,28.69 C10.46,29.46 9.15,30.86 8.57,32.64 C8,34.38 8.22,36.29 9.17,37.86 C17.63,51.92 36.52,68.51 64.17,72.9 C65.95,73.18 67.26,74.72 67.26,76.52 L67.26,192.65 L99.04,192.65 L99.04,87.43 C99.04,79.39 105.58,72.85 113.62,72.85 C121.66,72.85 128.2,79.39 128.2,87.43 L128.2,192.66 L128.22,192.66 Z" id="Shape"></path>
                        <path d="M104.05,85.99 C103.82,85.99 103.6,85.97 103.37,85.93 C101.38,85.56 100.07,83.64 100.44,81.65 C104.61,59.43 121.96,52.15 122.7,51.85 C124.58,51.09 126.72,51.99 127.48,53.87 C128.24,55.74 127.34,57.87 125.47,58.64 C124.88,58.88 111.06,64.84 107.65,83 C107.32,84.76 105.78,85.99 104.05,85.99 Z" id="Shape"></path>
                    </g>
                </g>
            </g>
        </g>
    </g>
</svg>